<svg xmlns="http://www.w3.org/2000/svg" xmlns:xlink="http://www.w3.org/1999/xlink" width="200" height="200" class="icon" p-id="1701" t="1555595435030" version="1.1" viewBox="0 0 1024 1024"><defs><style type="text/css"/></defs><path d="M628.334582 1024 391.191011 1024l0-21.924594c0-90.063421-74.402996-164.082896-163.635456-164.082896-29.786767 0-55.994007 6.51985-80.475406 22.308115l-21.029713 11.377778-118.188265-206.014482 20.134831-11.377778C106.746567 609.542072 133.017728 508.484395 88.401498 430.118352 75.233958 405.636954 52.542322 385.502122 27.997004 369.777778L7.862172 358.33608l118.188265-206.142322L147.08015 163.635456c24.481398 13.10362 53.373283 22.308115 82.265169 22.308115 58.614732 0 111.988015-31.512609 141.774782-80.539326C384.1598 80.539326 393.811735 51.647441 393.811735 22.308115L393.811735 0l236.312609 0 0 22.308115c0 91.917104 74.339076 163.635456 164.530337 163.635456 28.827965 0 57.71985-6.58377 82.265169-22.308115l21.029713-11.377778 118.124345 206.142322-20.070911 11.377778c-78.813483 44.61623-105.084644 145.673908-60.468414 223.97603 13.167541 24.545318 35.987016 44.61623 60.468414 60.468414l20.070911 11.377778-118.124345 206.014482-21.029713-11.377778c-24.545318-13.614981-53.437203-22.308115-82.265169-22.308115-58.614732 0-112.051935 31.001248-141.774782 80.539326-13.167541 24.545318-22.755556 53.820724-22.755556 79.964045L628.334582 1024zM435.807241 979.31985l150.531835 0c1.725843-29.403246 10.546816-56.569288 26.271161-80.986767 35.859176-64.751061 105.020724-102.847441 182.044444-102.847441 28.827965 0 57.71985 6.51985 84.821973 17.450187l74.466916-129.502122c-22.755556-17.833708-43.849189-38.54382-58.678652-65.198502-53.373283-91.917104-27.166042-210.488889 58.678652-273.514107l-74.466916-129.949563c-27.102122 11.377778-55.994007 17.897628-84.821973 17.897628-108.53633 0-195.211985-82.712609-206.525843-185.943571L437.597004 46.725593c-1.789763 29.339326-10.546816 58.614732-26.271161 83.09613C375.466667 194.700624 306.305119 232.797004 229.281398 232.797004c-28.891885 0-57.71985-6.58377-84.885893-17.897628L69.992509 344.785019C95.368789 362.746567 113.777778 382.881398 129.566042 409.983521c52.478402 91.917104 26.207241 210.424969-59.509613 273.450187l74.402996 129.502122c27.166042-10.994257 55.994007-17.450187 84.885893-17.450187C335.133084 792.864919 424.429463 873.851685 435.807241 979.31985z" p-id="1702"/><path d="M509.315356 721.594007c-113.713858 0-208.251685-94.154307-208.251685-208.763046 0-114.225218 94.537828-208.251685 208.251685-208.251685 114.672659 0 208.315605 94.090387 208.315605 208.251685C720.251685 627.4397 626.608739 721.594007 509.315356 721.594007zM509.315356 326.887391c-103.230961 0-185.49613 83.09613-185.49613 185.943571 0 103.230961 82.265169 185.943571 185.49613 185.943571 103.294881 0 186.391011-82.712609 186.391011-185.943571C695.706367 409.983521 612.610237 326.887391 509.315356 326.887391z" p-id="1703"/></svg>