<svg xmlns="http://www.w3.org/2000/svg" xmlns:xlink="http://www.w3.org/1999/xlink" width="200" height="200" class="icon" p-id="1972" t="1555646638643" version="1.1" viewBox="0 0 1024 1024"><defs><style type="text/css"/></defs><path d="M511.99693 63.791885c-247.551072 0-448.205045 174.769442-448.205045 390.368802 0 215.603453 200.650903 390.372895 448.205045 390.372895l0 115.674533c0 0 272.753057-190.648085 320.366472-233.04366 79.069847-70.344115 127.844713-166.768211 127.844713-273.008884C960.209138 238.561327 759.553119 63.791885 511.99693 63.791885L511.99693 63.791885zM733.541699 514.187829c-33.014928 0-59.781548-25.886577-59.778478-57.83829 0-31.891338 26.76355-57.777915 59.778478-57.777915 33.015951 0 59.744709 25.886577 59.744709 57.777915C793.286408 488.300228 766.558673 514.187829 733.541699 514.187829L733.541699 514.187829zM510.246053 514.187829c-33.011858 0-59.778478-25.886577-59.778478-57.83829 0-31.891338 26.76662-57.777915 59.778478-57.777915 33.015951 0 59.782571 25.886577 59.782571 57.777915C570.028625 488.300228 543.262004 514.187829 510.246053 514.187829L510.246053 514.187829zM285.20874 514.187829c-32.956599 0-59.719126-25.886577-59.719126-57.83829 0-31.891338 26.761504-57.777915 59.719126-57.777915 33.010835 0 59.773362 25.886577 59.773362 57.777915C344.982102 488.300228 318.219575 514.187829 285.20874 514.187829L285.20874 514.187829z" p-id="1973"/></svg>