<svg xmlns="http://www.w3.org/2000/svg" xmlns:xlink="http://www.w3.org/1999/xlink" width="200" height="200" class="icon" p-id="2155" t="1555596070217" version="1.1" viewBox="0 0 1024 1024"><defs><style type="text/css"/></defs><path d="M512 3.413333C231.154347 3.413333 3.413333 231.154347 3.413333 512c0 280.84224 227.741013 508.586667 508.586667 508.586667s508.586667-227.744427 508.586667-508.586667C1020.586667 231.154347 792.849067 3.413333 512 3.413333z m197.12 732.37504H227.208533v-63.75424l175.230294-63.75424V544.529067s-65.665707-10.642773-65.665707-127.627947c0-86.715733 72.123733-126.6688 109.564587-141.499733v-7.417174h43.776v7.417174c37.321387 14.830933 109.564587 54.784 109.564586 141.499733 0 116.978347-65.662293 127.627947-65.662293 127.627947v63.75424l175.11424 63.634773-0.01024 63.870293z m87.671467-191.491413h-65.662294v63.75424h-43.776v-63.75424h-65.665706v-42.584747h65.665706v-63.757653h43.776v63.757653h65.662294v42.584747z" p-id="2156"/></svg>