<?xml version="1.0" standalone="no"?><!DOCTYPE svg PUBLIC "-//W3C//DTD SVG 1.1//EN" "http://www.w3.org/Graphics/SVG/1.1/DTD/svg11.dtd"><svg t="1556270290355" class="icon" style="" viewBox="0 0 1024 1024" version="1.1" xmlns="http://www.w3.org/2000/svg" p-id="1996" xmlns:xlink="http://www.w3.org/1999/xlink" width="200" height="200"><defs><style type="text/css"></style></defs><path d="M778.312877 677.155894q0 87.405627-56.831943 150.600992t-147.748424 77.970208l0 99.986186q0 7.972563-5.119995 13.165701t-13.165701 5.119995l-77.165637 0q-7.460564 0-12.87313-5.412566t-5.412566-12.87313l0-99.986186q-37.741677-5.119995-72.850213-17.700554t-58.002228-25.453689-42.276529-27.428544-26.550831-21.430836-10.020561-10.313133q-9.72799-11.995417-1.170285-23.405691l58.879941-77.165637q4.022853-5.705137 13.165701-6.875422 8.557706-1.170285 13.677701 5.119995l1.170285 1.170285q64.585078 56.539372 138.825004 71.4605 21.138265 4.534853 42.276529 4.534853 46.299382 0 81.407919-24.575975t35.108536-69.705073q0-16.01827-8.557706-30.281113t-19.163409-23.990833-33.426252-21.430836-37.741677-18.285696-45.71424-18.578267q-22.308549-9.142848-35.108536-14.262843t-35.108536-15.140556-35.693679-17.700554-32.255968-20.260551-30.573684-24.283404-24.868547-28.013686-20.260551-33.133681-11.995417-38.034248-4.827424-44.543955q0-78.847921 56.027373-138.313005t145.700426-76.580495l0-102.838754q0-7.460564 5.412566-12.87313t12.87313-5.412566l77.165637 0q7.972563 0 13.165701 5.119995t5.119995 13.165701l0 100.571328q32.548539 3.437711 63.122223 13.165701t49.737093 19.163409 36.278821 21.430836 22.308549 16.603412 8.557706 7.972563q9.72799 10.313133 2.852569 21.723407l-46.299382 83.455917q-4.534853 8.557706-13.165701 9.142848-7.972563 1.682284-15.433127-4.022853-1.682284-1.682284-8.265135-6.875422t-22.308549-15.140556-33.426252-18.285696-42.5691-14.847985-48.85938-6.582851q-54.271946 0-88.575911 24.575975t-34.303966 63.414794q0 14.847985 4.827424 27.428544t16.82284 23.698262 22.60112 18.870838 32.036539 17.700554 34.596537 15.433127 40.009103 15.725699q30.281113 11.410274 46.299382 17.993125t43.446814 19.96798 43.154243 24.283404 35.401107 28.598829 30.281113 36.278821 17.993125 43.739385 7.460564 53.686803z" p-id="1997"></path></svg>