<svg xmlns="http://www.w3.org/2000/svg" xmlns:xlink="http://www.w3.org/1999/xlink" width="200" height="200" class="icon" p-id="2835" t="1555646977463" version="1.1" viewBox="0 0 1024 1024"><defs><style type="text/css"/></defs><path d="M206.769231 413.538462h-98.461539c-15.753846 0-29.538462 13.784615-29.538461 29.538461v452.923077c0 15.753846 13.784615 29.538462 29.538461 29.538462H157.538462c43.323077 0 78.769231-35.446154 78.76923-78.769231V443.076923c0-15.753846-13.784615-29.538462-29.538461-29.538461zM866.461538 433.230769h-118.153846c-43.323077 0-78.769231-35.446154-78.76923-78.769231V157.538462c0-43.323077-35.446154-78.769231-78.769231-78.769231h-49.230769c-15.753846 0-29.538462 13.784615-29.538462 29.538461v118.153846c0 104.369231-72.861538 206.769231-167.384615 206.769231-15.753846 0-29.538462 13.784615-29.538462 29.538462v393.846154c0 15.753846 11.815385 29.538462 27.569231 29.538461 133.907692 5.907692 179.2 59.076923 319.015384 59.076923 147.692308 0 283.569231-15.753846 283.569231-187.076923V512c0-43.323077-35.446154-78.769231-78.769231-78.769231z" p-id="2836"/></svg>