<svg xmlns="http://www.w3.org/2000/svg" xmlns:xlink="http://www.w3.org/1999/xlink" width="228.516" height="200" class="icon" p-id="1665" t="1555772134269" version="1.1" viewBox="0 0 1170 1024"><defs><style type="text/css"/></defs><path d="M146.285714 0h877.714286a146.285714 146.285714 0 0 1 146.285714 146.285714v731.428572a146.285714 146.285714 0 0 1-146.285714 146.285714H146.285714a146.285714 146.285714 0 0 1-146.285714-146.285714V146.285714a146.285714 146.285714 0 0 1 146.285714-146.285714z m219.428572 585.142857a146.285714 146.285714 0 1 0 0-292.571428 146.285714 146.285714 0 0 0 0 292.571428z m-206.994286 146.285714h413.988571a219.501714 219.501714 0 0 0-413.988571 0zM731.428571 365.714286v73.142857h292.571429V365.714286h-292.571429z m0 219.428571v73.142857h292.571429V585.142857h-292.571429z" p-id="1666"/></svg>