<svg id="Layer_1" data-name="Layer 1" xmlns="http://www.w3.org/2000/svg" xmlns:xlink="http://www.w3.org/1999/xlink" viewBox="0 0 255 255"><defs><style>.cls-1{fill:#364a5e;}.cls-2{opacity:0.4;fill:url(#Degradado_sin_nombre_111);}.cls-3{fill:#43b883;}.cls-4{fill:#47bb88;}.cls-5{fill:#fdfdfe;}</style><linearGradient id="Degradado_sin_nombre_111" x1="44.78" y1="148.63" x2="190.3" y2="148.63" gradientTransform="matrix(0.91, 0.41, -0.41, 0.91, 58.38, -70.21)" gradientUnits="userSpaceOnUse"><stop offset="0" stop-color="#47bb88"/><stop offset="1" stop-color="#75cccf"/></linearGradient></defs><title>Artboard 1</title><rect class="cls-1" x="19.56" y="16.54" width="218.44" height="218.44" rx="12"/><path class="cls-2" d="M187.87,64.61,54.53,66.75A12.26,12.26,0,0,0,44.19,85.67L121,204.58a12.27,12.27,0,0,0,21.53-1.7l56.5-121A12.28,12.28,0,0,0,187.87,64.61Z"/><path class="cls-3" d="M206.59,97.84,82.92,48A12.26,12.26,0,0,0,66,61.36L90.57,200.79a12.27,12.27,0,0,0,20.5,6.81l99.12-89.54A12.27,12.27,0,0,0,206.59,97.84Z"/><path class="cls-4" d="M84.67,207.51a12.91,12.91,0,0,1-12.78-13.76l10-141.22a12.82,12.82,0,0,1,20.52-9.33l107.91,78.35A12.82,12.82,0,0,1,208.81,143L90.94,205.84A12.78,12.78,0,0,1,84.67,207.51Zm10-165.82a11.92,11.92,0,0,0-4.89,1.07,11.58,11.58,0,0,0-6.84,9.85L73,193.83a11.71,11.71,0,0,0,17.41,11L208.28,142a11.72,11.72,0,0,0,1.33-19.55L101.7,44.09A11.6,11.6,0,0,0,94.67,41.69Z"/><path class="cls-5" d="M171.43,110.66c-.58-.65-8.58-10.66-10-12.36s-2.1-1.39-3-1.27-11,1.83-12.16,2-1.91.67-1.19,1.68l8.76,12.41-26.45,6.33-21-35.16c-.84-1.24-1-1.68-2.92-1.59S87,84,86,84.12s-2.18.55-1.15,3,17.62,38.17,18.08,39.21a3.55,3.55,0,0,0,4.47,2c2.89-.7,12.88-3.3,18.34-4.73,2.88,5.22,8.76,15.82,9.85,17.34,1.46,2,2.45,1.69,4.68,1,1.75-.53,27.25-9.7,28.4-10.17s1.86-.81,1.08-2c-.57-.84-7.3-9.86-10.82-14.57l11.91-3.18C171.86,111.83,172,111.31,171.43,110.66Zm-48.08,9.83-15.92,3.79c-.79.18-.79.09-.88-.18S88.94,87.7,88.7,87.25s-.23-.81,0-.81,14-1.23,14.47-1.25.44.07.62.38l19.74,34.08C123.87,120.24,123.67,120.42,123.35,120.49Zm41.76,7.83c.24.37.48.6-.27.87s-25.06,8.48-25.54,8.69-.84.27-1.45-.61-8.52-14.58-8.52-14.58L155.11,116c.65-.2.85-.33,1.25.31S164.88,127.94,165.11,128.32ZM166.77,110c-.58.12-10.05,2.47-10.05,2.47L149,101.86c-.22-.31-.4-.62.14-.69s9.34-1.66,9.74-1.75.74-.2,1.23.47,7.18,9.14,7.44,9.47S167.35,109.88,166.77,110Z"/></svg>